<svg xmlns="http://www.w3.org/2000/svg" viewBox="0 0 192 192" width="192" height="192">
  <defs>
    <linearGradient id="goldGradient192" x1="0%" y1="0%" x2="100%" y2="100%">
      <stop offset="0%" style="stop-color:#FFD700;stop-opacity:1" />
      <stop offset="50%" style="stop-color:#FFA500;stop-opacity:1" />
      <stop offset="100%" style="stop-color:#FF8C00;stop-opacity:1" />
    </linearGradient>
  </defs>
  
  <!-- 圓角背景 -->
  <rect x="10" y="10" width="172" height="172" rx="20" ry="20" fill="#000000" opacity="0.1"/>
  
  <!-- E 字母 -->
  <path d="M 42 42 L 42 150 L 85 150 L 85 115 L 64 115 L 64 96 L 80 96 L 80 77 L 64 77 L 64 58 L 85 58 L 85 42 Z" 
        fill="url(#goldGradient192)"/>
  
  <!-- F 字母 -->
  <path d="M 107 42 L 107 150 L 150 150 L 150 115 L 129 115 L 129 96 L 145 96 L 145 77 L 129 77 L 129 42 Z" 
        fill="url(#goldGradient192)"/>
  
  <!-- 裝飾性連接線 -->
  <path d="M 85 96 Q 96 91 107 96" 
        stroke="url(#goldGradient192)" 
        stroke-width="3" 
        fill="none" 
        opacity="0.6"/>
</svg>
