<svg xmlns="http://www.w3.org/2000/svg" viewBox="0 0 512 512" width="512" height="512">
  <defs>
    <linearGradient id="goldGradient512" x1="0%" y1="0%" x2="100%" y2="100%">
      <stop offset="0%" style="stop-color:#FFD700;stop-opacity:1" />
      <stop offset="50%" style="stop-color:#FFA500;stop-opacity:1" />
      <stop offset="100%" style="stop-color:#FF8C00;stop-opacity:1" />
    </linearGradient>
  </defs>
  
  <!-- 圓角背景 -->
  <rect x="20" y="20" width="472" height="472" rx="40" ry="40" fill="#000000" opacity="0.1"/>
  
  <!-- E 字母 -->
  <path d="M 112 112 L 112 400 L 228 400 L 228 308 L 172 308 L 172 256 L 216 256 L 216 204 L 172 204 L 172 152 L 228 152 L 228 112 Z" 
        fill="url(#goldGradient512)"/>
  
  <!-- F 字母 -->
  <path d="M 284 112 L 284 400 L 400 400 L 400 308 L 344 308 L 344 256 L 388 256 L 388 204 L 344 204 L 344 112 Z" 
        fill="url(#goldGradient512)"/>
  
  <!-- 裝飾性連接線 -->
  <path d="M 228 256 Q 256 246 284 256" 
        stroke="url(#goldGradient512)" 
        stroke-width="8" 
        fill="none" 
        opacity="0.6"/>
</svg>
