<svg xmlns="http://www.w3.org/2000/svg" viewBox="0 0 100 100">
  <defs>
    <!-- 金色漸層定義 -->
    <linearGradient id="goldGradient" x1="0%" y1="0%" x2="100%" y2="100%">
      <stop offset="0%" style="stop-color:#FFD700;stop-opacity:1" />
      <stop offset="50%" style="stop-color:#FFA500;stop-opacity:1" />
      <stop offset="100%" style="stop-color:#FF8C00;stop-opacity:1" />
    </linearGradient>
    
    <!-- 金色金屬效果濾鏡 -->
    <filter id="goldEffect" x="-20%" y="-20%" width="140%" height="140%">
      <feGaussianBlur in="SourceGraphic" stdDeviation="0.5"/>
      <feSpecularLighting result="specOut" in="SourceGraphic" specularConstant="1.5" specularExponent="20" lighting-color="#FFD700">
        <fePointLight x="25" y="25" z="100"/>
      </feSpecularLighting>
      <feComposite in="specOut" in2="SourceAlpha" operator="in" result="specOut"/>
      <feComposite in="SourceGraphic" in2="specOut" operator="arithmetic" k1="0" k2="1" k3="1" k4="0"/>
    </filter>
  </defs>
  
  <!-- 背景圓形 -->
  <circle cx="50" cy="50" r="48" fill="none" stroke="#000" stroke-width="1" opacity="0.1"/>
  
  <!-- E 字母 -->
  <g filter="url(#goldEffect)">
    <path d="M 25 20 L 25 80 L 45 80 L 45 65 L 35 65 L 35 55 L 42 55 L 42 45 L 35 45 L 35 35 L 45 35 L 45 20 Z" 
          fill="url(#goldGradient)" 
          stroke="#B8860B" 
          stroke-width="0.5"/>
  </g>
  
  <!-- F 字母 -->
  <g filter="url(#goldEffect)">
    <path d="M 55 20 L 55 80 L 75 80 L 75 65 L 65 65 L 65 55 L 72 55 L 72 45 L 65 45 L 65 20 Z" 
          fill="url(#goldGradient)" 
          stroke="#B8860B" 
          stroke-width="0.5"/>
  </g>
  
  <!-- 裝飾性連接線 -->
  <g opacity="0.6">
    <path d="M 45 50 Q 50 45 55 50" 
          stroke="url(#goldGradient)" 
          stroke-width="2" 
          fill="none"/>
  </g>
</svg>